<svg width="40" height="40" viewBox="0 0 40 40" fill="none" xmlns="http://www.w3.org/2000/svg">
  <path d="M20 0C31.0457 0 40 8.9543 40 20C40 31.0457 31.0457 40 20 40C8.9543 40 0 31.0457 0 20C0 8.9543 8.9543 0 20 0Z" fill="url(#gradient)"/>
  <path d="M12 14C12 11.7909 13.7909 10 16 10H24C26.2091 10 28 11.7909 28 14V16C28 18.2091 26.2091 20 24 20H20V24H24C26.2091 24 28 25.7909 28 28V30C28 32.2091 26.2091 34 24 34H16C13.7909 34 12 32.2091 12 30V28C12 25.7909 13.7909 24 16 24H20V20H16C13.7909 20 12 18.2091 12 16V14Z" fill="white"/>
  <defs>
    <linearGradient id="gradient" x1="0" y1="0" x2="40" y2="40" gradientUnits="userSpaceOnUse">
      <stop offset="0%" stopColor="#3b82f6"/>
      <stop offset="100%" stopColor="#f59e0b"/>
    </linearGradient>
  </defs>
</svg>