<svg width="40" height="40" viewBox="0 0 40 40" fill="none" xmlns="http://www.w3.org/2000/svg">
  <path d="M30 8C34.4183 8 38 11.5817 38 16C38 20.4183 34.4183 24 30 24H20C15.5817 24 12 20.4183 12 16C12 11.5817 15.5817 8 20 8H30Z" fill="url(#gradient1)"/>
  <path d="M10 16C5.58172 16 2 19.5817 2 24C2 28.4183 5.58172 32 10 32H20C24.4183 32 28 28.4183 28 24C28 19.5817 24.4183 16 20 16H10Z" fill="url(#gradient2)"/>
  <defs>
    <linearGradient id="gradient1" x1="12" y1="8" x2="38" y2="24" gradientUnits="userSpaceOnUse">
      <stop offset="0%" stopColor="#1E90FF"/>
      <stop offset="100%" stopColor="#4169E1"/>
    </linearGradient>
    <linearGradient id="gradient2" x1="2" y1="16" x2="28" y2="32" gradientUnits="userSpaceOnUse">
      <stop offset="0%" stopColor="#FF8C00"/>
      <stop offset="100%" stopColor="#FFA500"/>
    </linearGradient>
  </defs>
</svg>